#!OML:ASF E:\Mandelcareful walks\Project 1\Capture day 1\Session 1\Subject1.ASF
:FULLY-SPECIFIED
:DEGREES
518
root 45.2947 15.741 -1.62014 208.695 -82.2675 160.801
lowerback 31.1507 3.36077 -3.69037
upperback 7.92912 2.18353 -0.797343
thorax -8.19226 0.716275 0.47693
lowerneck -20.0035 -14.113 -16.0607
upperneck 10.97 -17.101 13.5571
head 9.27278 -7.61115 4.48339
rclavicle -2.42517e-014 -6.16232e-015
rhumerus -24.7638 14.8012 -85.1678
rradius 66.0836
rwrist -17.498
rhand -13.1117 -16.25
rfingers 7.12502
rthumb 12.9855 -45.8259
lclavicle -2.42517e-014 -6.16232e-015
lhumerus -29.2666 -16.9004 83.001
lradius 59.5965
lwrist 26.8248
lhand -26.4722 -12.0181
lfingers 7.12502
lthumb 0.0896578 17.9616
rfemur -24.9646 -11.4747 6.57922
rtibia 44.7063
rfoot -24.0451 -10.4899
rtoes -6.07495
lfemur -38.5151 12.3165 -16.8872
ltibia 54.9428
lfoot -21.04 7.7766
ltoes -5.49935
519
root 45.2607 15.7444 -1.59343 205.599 -81.9282 164.033
lowerback 31.1318 3.23136 -3.73872
upperback 7.73193 2.0413 -0.614204
thorax -8.41238 0.661908 0.760913
lowerneck -17.7069 -15.2525 -16.8987
upperneck 9.54641 -19.0073 15.3289
head 8.98914 -8.52241 4.91872
rclavicle 7.95139e-015 1.45113e-014
rhumerus -24.7977 14.7507 -85.1043
rradius 66.2926
rwrist -17.1156
rhand -13.1721 -16.094
rfingers 7.12502
rthumb 12.9273 -45.6736
lclavicle 7.95139e-015 1.45113e-014
lhumerus -30.1392 -17.0527 83.5831
lradius 59.2537
lwrist 26.9251
lhand -26.6296 -12.8047
lfingers 7.12502
lthumb -0.0623537 17.175
rfemur -24.9448 -11.2994 6.78969
rtibia 44.3942
rfoot -24.0364 -10.1329
rtoes -5.76986
lfemur -38.4563 12.4025 -16.6092
ltibia 55.0569
lfoot -21.383 8.00145
ltoes -5.42292
520
root 45.2215 15.75 -1.56551 203.092 -81.4844 166.635
lowerback 31.0993 3.05559 -3.75292
upperback 7.78545 1.82874 -0.423608
thorax -8.33424 0.557424 1.06596
lowerneck -17.0478 -16.2002 -17.8077
upperneck 8.95816 -20.4039 16.7088
head 9.18423 -9.14754 5.23403
rclavicle 1.56046e-014 3.37934e-015
rhumerus -24.22 14.8647 -84.8319
rradius 66.4469
rwrist -17.1274
rhand -13.0625 -15.8
rfingers 7.12502
rthumb 13.0329 -45.3728
lclavicle 1.56046e-014 3.37934e-015
lhumerus -30.3406 -16.9324 84.0633
lradius 58.6088
lwrist 27.0632
lhand -26.8061 -13.6116
lfingers 7.12502
lthumb -0.232784 16.368
rfemur -24.8875 -11.0763 6.90968
rtibia 44.0872
rfoot -24.0294 -9.94833
rtoes -6.75079
lfemur -38.3098 12.5215 -16.4105
ltibia 55.1466
lfoot -21.8061 8.26392
ltoes -5.0727
521
root 45.18 15.7499 -1.54033 201.4 -80.9356 168.431
lowerback 31.0675 2.97912 -3.86241
upperback 7.75229 1.71335 -0.288111
thorax -8.35916 0.505122 1.32561
lowerneck -16.4094 -16.8432 -18.4205
upperneck 8.52786 -21.4175 17.7819
head 9.32723 -9.60705 5.47748
rclavicle 9.98893e-015 2.33572e-014
rhumerus -23.9073 14.7971 -84.6928
rradius 66.6145
rwrist -17.4576
rhand -12.9785 -15.7022
rfingers 7.12502
rthumb 13.1139 -45.2699
lclavicle 9.98893e-015 2.33572e-014
lhumerus -30.6769 -17.0074 84.5627
lradius 57.9075
lwrist 27.1257
lhand -26.8386 -14.3191
lfingers 7.12502
lthumb -0.264206 15.6605
rfemur -24.8819 -10.7942 6.92754
rtibia 43.7935
rfoot -23.9285 -9.97607
rtoes -8.02805
lfemur -38.1606 12.7167 -16.3285
ltibia 55.2355
lfoot -22.3575 8.55742
ltoes -4.96214
522
root 45.1334 15.7476 -1.51576 199.989 -80.303 169.96
lowerback 31.0476 2.92379 -4.02016
upperback 7.64488 1.61493 -0.156692
thorax -8.47538 0.46684 1.60106
lowerneck -15.9453 -17.1994 -18.9189
upperneck 8.32477 -22.0036 18.5274
head 9.45461 -9.87347 5.67979
rclavicle 1.44119e-015 -2.06736e-014
rhumerus -23.6994 14.9085 -84.6071
rradius 66.6912
rwrist -17.7743
rhand -13.2069 -15.6047
rfingers 7.12502
rthumb 12.8937 -45.1864
lclavicle 1.44119e-015 -2.06736e-014
lhumerus -31.1667 -16.9446 85.1092
lradius 57.2119
lwrist 26.9839
lhand -26.6748 -14.8402
lfingers 7.12502
lthumb -0.105954 15.1395
rfemur -24.8975 -10.4884 6.9132
rtibia 43.5031
rfoot -23.7336 -10.0307
rtoes -8.88254
lfemur -37.9995 13.0451 -16.2962
ltibia 55.3223
lfoot -22.8551 8.77747
ltoes -5.3383
523
root 45.081 15.7458 -1.49078 198.892 -79.6524 171.26
lowerback 30.8951 2.86668 -4.08679
upperback 7.53887 1.54881 -0.0626267
thorax -8.52489 0.44345 1.77152
lowerneck -15.5854 -17.3893 -19.255
upperneck 8.23302 -22.3375 18.9805
head 9.53399 -10.03 5.81595
rclavicle -6.21202e-015 -1.8487e-014
rhumerus -23.4413 14.8557 -84.4952
rradius 66.6854
rwrist -17.8057
rhand -13.6787 -15.2687
rfingers 7.12502
rthumb 12.4389 -44.8785
lclavicle -6.21202e-015 -1.8487e-014
lhumerus -31.5844 -16.9632 85.6548
lradius 56.4807
lwrist 26.8729
lhand -26.8493 -14.9011
lfingers 7.12502
lthumb -0.274584 15.0784
rfemur -24.9717 -10.2215 6.89827
rtibia 43.1819
rfoot -23.5727 -9.99957
rtoes -9.31819
lfemur -37.913 13.4207 -16.3109
ltibia 55.4294
lfoot -23.222 8.91263
ltoes -5.66068
524
root 45.0209 15.7442 -1.46618 197.836 -79.0158 172.504
lowerback 30.6769 2.85179 -4.06211
upperback 7.48832 1.56166 0.00920912
thorax -8.48134 0.45185 1.83596
lowerneck -15.3452 -17.5527 -19.472
upperneck 8.15104 -22.6106 19.2783
head 9.58968 -10.159 5.89131
rclavicle 9.69075e-015 -3.926e-015
rhumerus -23.1679 14.5136 -84.3685
rradius 66.578
rwrist -17.4731
rhand -14.0758 -14.9495
rfingers 7.12502
rthumb 12.056 -44.5822
lclavicle 9.69075e-015 -3.926e-015
lhumerus -31.973 -17.1379 86.2083
lradius 55.757
lwrist 26.7275
lhand -27.4836 -15.1394
lfingers 7.12502
lthumb -0.887205 14.8385
rfemur -24.9609 -9.9107 6.88309
rtibia 42.7876
rfoot -23.5744 -9.81043
rtoes -9.40521
lfemur -37.7723 13.7706 -16.2944
ltibia 55.5541
lfoot -23.6241 9.05679
ltoes -5.75338
525
root 44.9576 15.7478 -1.43807 196.693 -78.4758 173.761
lowerback 30.5498 2.78156 -3.84672
upperback 7.49608 1.54325 0.022294
thorax -8.40647 0.437976 1.7351
lowerneck -15.3225 -17.5647 -19.5738
upperneck 7.87819 -22.6285 19.5793
head 9.55577 -10.1626 6.00224
rclavicle -3.03147e-014 2.14687e-014
rhumerus -22.8151 14.083 -84.3243
rradius 66.2941
rwrist -16.9477
rhand -14.2964 -14.6931
rfingers 7.12502
rthumb 11.8433 -44.3382
lclavicle -3.03147e-014 2.14687e-014
lhumerus -32.2816 -17.1848 86.6269
lradius 54.967
lwrist 26.3671
lhand -28.0966 -15.7164
lfingers 7.12502
lthumb -1.47919 14.2583
rfemur -24.7879 -9.60148 6.8794
rtibia 42.3148
rfoot -23.5607 -9.60282
rtoes -9.43991
lfemur -37.579 14.0211 -16.2196
ltibia 55.7106
lfoot -24.0948 9.22617
ltoes -5.70975
526
root 44.8917 15.7556 -1.40753 196.097 -77.9434 174.513
lowerback 30.4459 2.70772 -3.69264
upperback 7.44341 1.5031 0.0113641
thorax -8.41099 0.419402 1.64944
lowerneck -15.4973 -17.5637 -19.5745
upperneck 8.15166 -22.6286 19.5164
head 9.66919 -10.1456 5.96987
rclavicle 1.5207e-014 5.06901e-015
rhumerus -22.5389 13.8023 -84.2836
rradius 65.8898
rwrist -16.4824
rhand -14.5336 -14.4469
rfingers 7.12502
rthumb 11.6146 -44.105
lclavicle 1.5207e-014 5.06901e-015
lhumerus -32.6136 -16.9085 87.028
lradius 54.1105
lwrist 25.7194
lhand -28.5118 -16.2278
lfingers 7.12502
lthumb -1.8802 13.7437
rfemur -24.6095 -9.37061 6.78202
rtibia 41.7909
rfoot -23.4209 -9.42894
rtoes -9.82231
lfemur -37.4528 14.2158 -16.2694
ltibia 55.8982
lfoot -24.6006 9.42001
ltoes -5.57408
527
root 44.8173 15.76 -1.37955 195.674 -77.3407 175.165
lowerback 30.1704 2.72838 -3.71325
upperback 7.34539 1.55268 0.0533707
thorax -8.39546 0.449785 1.69274
lowerneck -15.0806 -17.4388 -19.589
upperneck 7.86169 -22.4684 19.4787
head 9.4644 -10.1103 6.02646
rclavicle -1.53561e-014 1.39149e-015
rhumerus -22.4209 13.639 -84.1793
rradius 65.5101
rwrist -16.2174
rhand -14.6571 -14.4607
rfingers 7.12502
rthumb 11.4955 -44.1255
lclavicle -1.53561e-014 1.39149e-015
lhumerus -33.0385 -16.3128 87.4296
lradius 53.3509
lwrist 25.2404
lhand -28.422 -16.8102
lfingers 7.12502
lthumb -1.79349 13.162
rfemur -24.4769 -9.09678 6.66501
rtibia 41.2208
rfoot -23.3245 -9.25992
rtoes -10.2496
lfemur -37.3451 14.4554 -16.3547
ltibia 56.0967
lfoot -25.1556 9.60811
ltoes -5.41914
528
root 44.7393 15.761 -1.35327 194.684 -76.8387 176.392
lowerback 29.8719 2.74219 -3.54792
upperback 7.39333 1.63806 0.110432
thorax -8.20031 0.483966 1.63507
lowerneck -15.6775 -17.4912 -19.4037
upperneck 8.29754 -22.4551 19.0466
head 9.62109 -10.0758 5.82223
rclavicle 2.27608e-014 3.62782e-015
rhumerus -22.1547 13.4788 -84.0444
rradius 65.3424
rwrist -16.2342
rhand -14.4968 -15.1629
rfingers 7.12502
rthumb 11.65 -44.819
lclavicle 2.27608e-014 3.62782e-015
lhumerus -33.2474 -15.6856 87.7008
lradius 52.5772
lwrist 24.5199
lhand -28.5813 -17.985
lfingers 7.12502
lthumb -1.94737 11.9859
rfemur -24.2773 -8.71627 6.72793
rtibia 40.5832
rfoot -23.2277 -9.31541
rtoes -10.6348
lfemur -37.2329 14.6865 -16.249
ltibia 56.3099
lfoot -25.5793 9.7175
ltoes -5.14817
529
root 44.6558 15.7648 -1.3236 193.752 -76.4366 177.546
lowerback 29.7018 2.75385 -3.22912
upperback 7.40575 1.75211 0.0937353
thorax -8.10144 0.532084 1.39417
lowerneck -15.722 -17.4441 -19.1773
upperneck 8.11387 -22.3771 18.9277
head 9.50587 -10.0468 5.76988
rclavicle 3.76697e-014 -3.97569e-016
rhumerus -22.1637 13.2405 -83.9937
rradius 65.4074
rwrist -16.4844
rhand -14.4412 -16.043
rfingers 7.12502
rthumb 11.7036 -45.6961
lclavicle 3.76697e-014 -3.97569e-016
lhumerus -33.4953 -15.1345 87.8561
lradius 51.9387
lwrist 23.7994
lhand -28.6685 -19.0543
lfingers 7.12502
lthumb -2.03151 10.9157
rfemur -23.9509 -8.43581 6.78949
rtibia 39.8563
rfoot -23.1286 -9.35109
rtoes -11.1716
lfemur -37.1155 14.8306 -16.1395
ltibia 56.5267
lfoot -25.8386 9.8534
ltoes -4.69146
530
root 44.559 15.777 -1.29072 192.967 -76.0588 178.664
lowerback 29.4327 2.77471 -2.94964
upperback 7.32867 1.88095 0.0711096
thorax -8.05625 0.595101 1.16504
lowerneck -16.1686 -17.4893 -19.1167
upperneck 8.61962 -22.4155 18.7301
head 9.7239 -10.0306 5.65696
rclavicle -2.61899e-014 -8.99501e-015
rhumerus -22.3546 13.0878 -83.9603
rradius 65.3991
rwrist -16.8451
rhand -14.5056 -16.4579
rfingers 7.12502
rthumb 11.6416 -46.1145
lclavicle -2.61899e-014 -8.99501e-015
lhumerus -33.8474 -14.5765 87.9716
lradius 51.3462
lwrist 23.2606
lhand -28.7124 -19.6233
lfingers 7.12502
lthumb -2.07392 10.3463
rfemur -23.6166 -8.35147 6.83927
rtibia 39.0399
rfoot -23.097 -9.14652
rtoes -11.8604
lfemur -37.103 14.932 -16.0713
ltibia 56.7561
lfoot -26.1499 10.0306
ltoes -4.55648
531
root 44.4514 15.7913 -1.25711 192.061 -75.7629 179.921
lowerback 29.0429 2.75619 -2.84578
upperback 7.26641 1.92666 0.165661
thorax -7.94065 0.621753 1.20065
lowerneck -16.4558 -17.4276 -19.258
upperneck 9.00235 -22.2985 18.6886
head 9.89276 -9.95188 5.67219
rclavicle 3.61291e-014 6.11263e-015
rhumerus -22.4913 13.4254 -83.8035
rradius 65.1757
rwrist -17.2015
rhand -14.4191 -16.4873
rfingers 7.12502
rthumb 11.725 -46.1392
lclavicle 3.61291e-014 6.11263e-015
lhumerus -34.2923 -13.6144 88.0932
lradius 50.8595
lwrist 22.8235
lhand -28.7424 -19.878
lfingers 7.12502
lthumb -2.10294 10.0914
rfemur -23.1893 -8.28186 6.92054
rtibia 38.1649
rfoot -23.031 -8.93287
rtoes -12.356
lfemur -37.0862 15.0764 -15.9664
ltibia 57.0074
lfoot -26.5938 10.0041
ltoes -4.36674
